# xmcd
#
# Track frame offsets:
#	150
#	15116
#	27237
#	36244
#	45091
#	61177
#	77299
#	90372
#	99747
#	113563
#	119300
#	124941
#	131711
#	136750
#	141749
#	147944
#	153106
#	159296
#	166400
#	178947
#	191521
#	203651
#	214396
#	230206
#	245832
#	258731
#	274362
#	287289
#	304263
#	310166
#
# Disc length: 4285 seconds
#
# Revision: 0
# Processed by: cddbd v1.5.2PL0 Copyright (c) Steve Scherf et al.
# Submitted via: EasyCDDAExtractor 16.0.6.1
#
DISCID=a610bb1e
DTITLE=Συλλογικός δίσκος - Οι γλεντζέδες σπάνε πιάτα
DYEAR=2010
DGENRE=Λαϊκή
TTITLE0=Καρουσάκης Κώστας - Πού να γυρνάς [Αντ. Ρεπάνης-Νίκος Γκούμας]
TTITLE1=Χρηστάκης - Παίζουν τα μπαγλαμαδάκια [Γ. Ροβερτάκης-Γ. Γαβαλάς]
TTITLE2=Διαμαντή Σοφία - Θέλω στα μπουζούκια [Γιώργος Μητσάκης]
TTITLE3=Μπογδάνος Γιάννης-Καββαδία Φραντζέσκα - Όταν καπνίζει ο λουλάς [Γιώργο
TTITLE3=ς Μητσάκης]
TTITLE4=Καββαδία Φραντζέσκα - Το καπηλειό [Γιώργος Μητσάκης]
TTITLE5=Αλεξάνδρα - Το μονοπάτι [Μουζάκης/Σακελλάριος-Γ.κ Χρ. Γιαννακόπουλος]
TTITLE6=Αλεξάνδρα - Τ' αλάνια [Βασ. Τσιτσάνης]
TTITLE7=Αλεξάνδρα - Ξημερώνει και βραδιάζει [Βασ. Τσιτσάνης]
TTITLE8=Χρηστάκης - Το πουλί [Ζακ Ιακωβίδης-Μιχ. Γαβριηλίδης]
TTITLE9=Γαβαλάς Πάνος-Κούρτη Ρία - Η αχάριστη [Βασ. Τσιτσάνης]
TTITLE10=Γαβαλάς Πάνος-Κούρτη Ρία - Αρχόντισσα [Βασ. Τσιτσάνης]
TTITLE11=Γαβαλάς Πάνος-Κούρτη Ρία - Πέφτεις σε λάθη [Βασ. Τσιτσάνης]
TTITLE12=Γαβαλάς Πάνος-Κούρτη Ρία - Ένας διαβάτης [Στ. Τζουανάκος-Κ. Κοφινιώτη
TTITLE12=ς]
TTITLE13=Γαβαλάς Πάνος-Κούρτη Ρία - Σ' ένα βράχο φαγωμένο [Απ. Καλδάρας]
TTITLE14=Γαβαλάς Πάνος-Κούρτη Ρία - Πήρα τη στράτα κι έρχομαι [Βασ. Τσιτσάνης]
TTITLE15=Γαβαλάς Πάνος-Κούρτη Ρία - Ξεκινά μιά ψαροπούλα [Δημ. Γκόγκος]
TTITLE16=Γαβαλάς Πάνος-Κούρτη Ρία - Ζέπος [Γ. Παπαϊωάννου]
TTITLE17=Γαβαλάς Πάνος-Κούρτη Ρία - Βαγγελίτσα [Γ. Παπαϊωάννου]
TTITLE18=Χρηστάκης - Να χαρείς τα μάτια σου καλέ [Στέλ. Ζαφειρίου-Γ. Γαβαλάς]
TTITLE19=Θυμάκης Γιάννης - Το παλιόπαιδο [Απ. Χατζηχρήστος-Γ. Λελάκης]
TTITLE20=Μενιδιάτης Μιχάλης - Στο κάτω κάτω της γραφής [Κ. Σούκας-Δημ. Βαρσαμί
TTITLE20=δης]
TTITLE21=Μενιδιάτης Μιχάλης - Μην περιμένεις πια [Απ. Καλδάρας]
TTITLE22=Μενιδιάτης Μιχάλης - Λίγο-λίγο θα με συνηθίσεις [Α. Καλδάρας-Ε. Παπαγ
TTITLE22=ιαννοπούλου]
TTITLE23=Μενιδιάτης Μιχάλης - Περιφρόνα με γλυκειά μου [Α. Καλδάρας-Γ. Σαμολαδ
TTITLE23=άς]
TTITLE24=Τσετίνης Μπάμπης - Ό,τι αγαπάω εγώ πεθαίνει [Α. Καλδάρας-Γ. Σαμολαδάς
TTITLE24=]
TTITLE25=Τσετίνης Μπάμπης - Δε θα ξαναγαπήσω [Μ. Λοΐζος-Λ. Παπαδόπουλος]
TTITLE26=Τσετίνης Μπάμπης - Βραδιάζει [Χρ. Νικολόπουλος-Σώτια Τσώτου]
TTITLE27=Τσετίνης Μπάμπης - Γλυκέ μου τύραννε [Γ. Κυριαζής-Γ. Γαβαλάς]
TTITLE28=Μακεδόνας Κώστας - Εσύ 'σαι η αιτία που υποφέρω [Μ. Χιώτης]
TTITLE29=Μακεδόνας Κώστας - Οι θαλασσινοί [Γ. Ζαμπέτας-Στέλ. Γεράνης]
EXTD=
EXTT0=
EXTT1=
EXTT2=
EXTT3=
EXTT4=
EXTT5=
EXTT6=
EXTT7=
EXTT8=
EXTT9=
EXTT10=
EXTT11=
EXTT12=
EXTT13=
EXTT14=
EXTT15=
EXTT16=
EXTT17=
EXTT18=
EXTT19=
EXTT20=
EXTT21=
EXTT22=
EXTT23=
EXTT24=
EXTT25=
EXTT26=
EXTT27=
EXTT28=
EXTT29=
PLAYORDER=
